#!OML:ASF F:\VICON\USERDATA\INSTALL\rory3\rory3.ASF
:FULLY-SPECIFIED
:DEGREES
155
root 4.57588 17.4426 3.05546 17.2952 -24.3401 -6.01203
lowerback -4.1333 4.94827 3.95613
upperback -8.90958 6.58787 0.023633
thorax -6.568 3.00731 -2.24826
lowerneck -12.3114 4.8875 1.68586
upperneck 39.1283 5.42542 3.67898
head 15.8672 2.99587 2.1819
rclavicle 1.68967e-014 9.93923e-015
rhumerus 18.8839 -14.349 -11.2463
rradius 118.061
rwrist -54.5177
rhand -6.44624 -45.5405
rfingers 7.12502
rthumb 19.4033 -74.5924
lclavicle 1.68967e-014 9.93923e-015
lhumerus 27.5104 29.6504 -3.09491
lradius 62.3062
lwrist 53.2197
lhand -31.4238 -29.978
lfingers 7.12502
lthumb -4.69232 -0.0499418
rfemur -22.847 -10.5483 1.95026
rtibia 27.1705
rfoot -1.34156 -39.5038
rtoes 31.2807
lfemur -26.0996 3.41435 -24.8646
ltibia 27.531
lfoot -16.2915 14.6304
ltoes 12.2497
156
root 4.5842 17.4402 3.05131 17.3962 -24.478 -6.00178
lowerback -4.35101 4.95331 3.93928
upperback -8.82319 6.57844 0.00324198
thorax -6.35012 3.01046 -2.23422
lowerneck -11.9208 4.83538 1.78667
upperneck 38.5551 5.4388 3.37114
head 15.499 2.98115 1.99245
rclavicle -4.33599e-015 -1.21259e-014
rhumerus 19.0509 -14.3041 -11.4855
rradius 118.016
rwrist -54.3724
rhand -6.23432 -45.3742
rfingers 7.12502
rthumb 19.6071 -74.4054
lclavicle -4.33599e-015 -1.21259e-014
lhumerus 27.5705 29.7509 -2.83303
lradius 62.698
lwrist 53.1944
lhand -33.1383 -31.5846
lfingers 7.12502
lthumb -6.34772 -1.69975
rfemur -23.4694 -10.8014 2.09523
rtibia 27.4559
rfoot 1.21929 -39.0457
rtoes 28.9832
lfemur -26.3134 3.505 -24.9309
ltibia 27.6413
lfoot -16.1786 14.7663
ltoes 11.4968
157
root 4.59133 17.4373 3.04956 17.416 -24.6679 -5.98327
lowerback -4.43546 4.9768 3.89314
upperback -8.80413 6.60444 0.0104438
thorax -6.28551 3.02858 -2.1924
lowerneck -11.6652 4.85287 1.71998
upperneck 38.4479 5.50438 3.32859
head 15.3816 2.99524 1.98116
rclavicle 6.48411e-014 -3.97569e-015
rhumerus 19.3146 -14.1592 -11.8491
rradius 117.943
rwrist -54.16
rhand -5.94419 -45.4266
rfingers 7.12502
rthumb 19.886 -74.4292
lclavicle 6.48411e-014 -3.97569e-015
lhumerus 27.4929 29.673 -2.66633
lradius 63.1147
lwrist 53.2396
lhand -33.7437 -32.3337
lfingers 7.12502
lthumb -6.93214 -2.46722
rfemur -24.0132 -10.97 2.19414
rtibia 27.766
rfoot 1.10983 -38.6941
rtoes 29.0211
lfemur -26.3994 3.54568 -24.9911
ltibia 27.6914
lfoot -16.0259 15.0625
ltoes 10.4227
158
root 4.59967 17.4352 3.04999 17.3818 -24.7993 -5.94152
lowerback -4.4272 4.98514 3.85424
upperback -8.76616 6.61425 -0.00678036
thorax -6.25029 3.03675 -2.18757
lowerneck -11.6886 4.88047 1.51878
upperneck 38.6439 5.54822 3.47271
head 15.4682 3.00136 2.09302
rclavicle -6.60089e-014 -6.55989e-015
rhumerus 19.4174 -14.193 -12.1479
rradius 118.032
rwrist -54.1599
rhand -5.64147 -45.7943
rfingers 7.12502
rthumb 20.177 -74.7664
lclavicle -6.60089e-014 -6.55989e-015
lhumerus 27.3469 29.6227 -2.66297
lradius 63.5929
lwrist 53.5173
lhand -33.2006 -31.7202
lfingers 7.12502
lthumb -6.40787 -1.83716
rfemur -24.4358 -11.2176 2.25208
rtibia 28.0483
rfoot 1.89207 -38.2548
rtoes 28.6465
lfemur -26.403 3.59298 -25.0919
ltibia 27.7149
lfoot -15.9673 15.2611
ltoes 9.65878
159
root 4.60852 17.4341 3.03707 17.3073 -24.8426 -5.84023
lowerback -4.12305 4.93595 3.68086
upperback -8.84128 6.56639 -0.0295965
thorax -6.52235 3.01434 -2.15093
lowerneck -11.7214 4.87792 1.62319
upperneck 38.8574 5.54467 3.38924
head 15.5929 2.99921 2.0501
rclavicle 5.13113e-015 9.93923e-016
rhumerus 19.3587 -14.0215 -12.2872
rradius 118.178
rwrist -54.2843
rhand -5.63709 -46.0374
rfingers 7.12502
rthumb 20.1812 -75.0091
lclavicle 5.13113e-015 9.93923e-016
lhumerus 27.2569 29.5202 -2.64833
lradius 64.0905
lwrist 53.8081
lhand -32.4251 -30.6129
lfingers 7.12502
lthumb -5.6592 -0.708509
rfemur -24.8136 -11.3549 2.2647
rtibia 28.2487
rfoot 1.01128 -38.1796
rtoes 29.9562
lfemur -26.4751 3.61992 -25.2153
ltibia 27.7725
lfoot -15.8547 15.3688
ltoes 9.0713
160
root 4.6181 17.4386 3.01748 17.3092 -24.7834 -5.94623
lowerback -3.61401 4.84804 3.61747
upperback -9.05029 6.48496 0.0474913
thorax -7.0611 2.96251 -2.09714
lowerneck -11.6191 4.86807 1.76167
upperneck 39.1212 5.5093 3.33655
head 15.7128 2.99288 2.00588
rclavicle -3.47873e-015 1.35174e-014
rhumerus 19.2871 -13.5278 -12.3252
rradius 118.29
rwrist -54.2076
rhand -5.64612 -46.0688
rfingers 7.12502
rthumb 20.1725 -75.0414
lclavicle -3.47873e-015 1.35174e-014
lhumerus 27.0718 29.1383 -2.67894
lradius 64.5583
lwrist 54.1352
lhand -32.1456 -30.5845
lfingers 7.12502
lthumb -5.38935 -0.672999
rfemur -25.1713 -11.2641 2.51114
rtibia 28.4233
rfoot -5.28246 -38.0219
rtoes 35.6132
lfemur -26.6379 3.4767 -25.0142
ltibia 27.8608
lfoot -15.8445 15.3889
ltoes 10.6619
161
root 4.62841 17.4439 3.02084 17.3996 -24.787 -6.1765
lowerback -3.57385 4.81791 3.78383
upperback -9.10963 6.45313 0.123825
thorax -7.14322 2.93473 -2.11512
lowerneck -11.4315 4.84062 1.75274
upperneck 39.2046 5.47153 3.3318
head 15.7106 2.97338 1.99517
rclavicle 1.33931e-014 1.17283e-014
rhumerus 19.2195 -13.221 -12.3396
rradius 118.388
rwrist -54.0452
rhand -5.72551 -46.1701
rfingers 7.12502
rthumb 20.0962 -75.1508
lclavicle 1.33931e-014 1.17283e-014
lhumerus 26.9511 28.7957 -2.69149
lradius 64.9309
lwrist 54.4622
lhand -31.7439 -30.9209
lfingers 7.12502
lthumb -5.00148 -0.999948
rfemur -25.5209 -11.3966 2.88497
rtibia 28.5693
rfoot -6.01539 -37.5762
rtoes 36.558
lfemur -26.7253 3.39741 -24.7563
ltibia 27.9877
lfoot -16.1376 15.3584
ltoes 12.647
